<?xml version="1.0" standalone="no"?><!DOCTYPE svg PUBLIC "-//W3C//DTD SVG 1.1//EN" "http://www.w3.org/Graphics/SVG/1.1/DTD/svg11.dtd"><svg t="1685203843803" class="icon" viewBox="0 0 1024 1024" version="1.1" xmlns="http://www.w3.org/2000/svg" p-id="4458" xmlns:xlink="http://www.w3.org/1999/xlink" width="128" height="128"><path d="M1024 512c0 282.766222-229.233778 512-512 512S0 794.766222 0 512 229.233778 0 512 0s512 229.233778 512 512z m-170.666667-56.888889c0-219.932444-178.289778-398.222222-398.222222-398.222222S56.888889 235.178667 56.888889 455.111111s178.289778 398.222222 398.222222 398.222222 398.222222-178.289778 398.222222-398.222222z m-196.096 97.735111c101.489778-36.920889 134.286222-104.732444 98.389334-203.377778-15.075556-41.329778-39.822222-69.461333-74.296889-84.337777-33.877333-14.165333-71.509333-13.710222-112.839111 1.336889a283.648 283.648 0 0 0-97.28 60.103111l-42.012445 10.951111c0.341333 26.680889 11.093333 69.091556 32.284445 127.260444 19.057778 52.451556 39.424 99.441778 60.984889 140.999111l61.724444-32.654222-4.807111-7.907555c23.096889 2.247111 49.038222-1.877333 77.852444-12.344889z m-8.078222-221.781333c18.858667 8.334222 32.768 24.888889 41.813333 49.692444 18.488889 50.744889 1.621333 85.617778-50.545777 104.618667-24.832 9.016889-55.466667 14.848-91.960889 17.464889-9.244444-18.261333-18.488889-40.106667-27.704889-65.450667-8.192-22.528-13.482667-40.618667-15.872-54.300444 6.741333-8.903111 18.773333-18.915556 36.039111-30.037334a247.637333 247.637333 0 0 1 43.008-21.504c24.803556-9.016889 46.563556-9.187556 65.223111-0.483555z m-202.979555 277.788444c27.591111-29.752889 35.811556-60.017778 24.604444-90.794666-12.344889-33.934222-40.248889-48.014222-83.655111-42.211556a106.154667 106.154667 0 0 0-3.754667-63.544889c-8.704-23.950222-26.737778-38.030222-54.129778-42.268444-22.186667-3.242667-45.937778-0.227556-71.310222 8.988444-53.902222 19.626667-97.848889 57.258667-131.811555 112.896l55.409777 36.465778c31.971556-45.226667 64.625778-73.870222 97.991112-86.016 11.406222-4.152889 19.342222-5.916444 23.751111-5.262222 6.257778 1.28 11.121778 6.599111 14.563555 16.014222 3.726222 10.24-8.448 27.790222-36.579555 52.536889-24.832 22.272-42.808889 35.441778-53.930667 39.480889l40.078222 54.186666c34.531556-25.799111 64.312889-43.235556 89.400889-52.394666 23.096889-8.391111 36.721778-6.912 40.874667 4.494222 3.128889 8.561778-4.949333 19.256889-24.177778 32.056889a245.703111 245.703111 0 0 1-51.285333 25.429333l38.257777 55.836445c34.787556-12.657778 63.345778-31.288889 85.703112-55.893334z" fill="#FD5238" p-id="4459"></path></svg>